<?xml version="1.0" encoding="UTF-8"?>
<svg xmlns="http://www.w3.org/2000/svg" xmlns:xlink="http://www.w3.org/1999/xlink" width="920.15pt" height="327.2pt" viewBox="0 0 920.15 327.2" version="1.1">
<g id="surface1">
<path style=" stroke:none;fill-rule:nonzero;fill:rgb(0%,0%,0%);fill-opacity:1;" d="M 903.164063 12.664063 C 903.164063 12.664063 845.332031 24.246094 842 26.578125 L 696.332031 65.578125 C 696.332031 65.578125 690.332031 74.914063 693.332031 82.914063 L 674 92.578125 C 674 92.578125 663 113.246094 687 129.578125 L 641.664063 129.578125 L 622.332031 157.246094 L 497.332031 157.246094 L 480.664063 182.578125 C 480.664063 182.578125 454 179.914063 442 198.246094 C 442 198.246094 431 179.578125 395.332031 182.578125 L 239.664063 182.578125 C 239.664063 182.578125 211.332031 181.914063 200 198.246094 C 200 198.246094 194.332031 181.246094 156 182.578125 C 156 183.578125 66.332031 182.578125 66.332031 182.578125 L 25.664063 240.914063 C 25.664063 240.914063 7 271.246094 56.664063 272.246094 L 204.664063 272.246094 L 242.664063 219.578125 C 242.664063 219.578125 244.996094 216.246094 248.664063 216.246094 L 284.664063 216.246094 L 244 272.246094 L 302 272.246094 L 342.332031 216.246094 L 380 216.246094 L 341 272.246094 L 399.664063 272.246094 L 408.664063 257.582031 C 408.664063 257.582031 413.332031 273.914063 443 272.246094 L 543.332031 272.246094 C 543.332031 272.246094 543.332031 292.582031 568.332031 296.246094 L 701.332031 296.246094 L 727.664063 272.246094 L 834 272.246094 L 879.554688 204.246094 C 879.554688 204.246094 889.664063 183.246094 863 182.246094 L 840.332031 182.246094 L 856.332031 157.246094 L 762 157.246094 L 781 129.578125 L 724.664063 129.578125 L 705.664063 157.246094 L 679 157.246094 L 701.332031 124.246094 C 701.332031 124.246094 734.332031 126.578125 734.332031 100.578125 C 734.332031 100.578125 740.914063 120.914063 772.414063 113.664063 C 772.414063 113.664063 795.414063 112.914063 799.414063 84.914063 C 799.414063 84.914063 818.914063 79.414063 827.664063 67.164063 C 827.664063 67.164063 845.414063 61.414063 850.664063 52.164063 C 850.664063 52.164063 861.664063 54.414063 903.164063 12.664063 "/>
<path style=" stroke:none;fill-rule:nonzero;fill:rgb(100%,100%,100%);fill-opacity:1;" d="M 868.332031 30.578125 L 703.332031 74.578125 C 703.332031 74.578125 701 81.914063 712 83.914063 L 715 77.246094 L 759 65.578125 L 682.332031 100.246094 C 682.332031 100.246094 677.332031 116.246094 697 114.578125 L 717.039063 110.914063 C 717.039063 110.914063 721.414063 110.539063 722.289063 104.289063 C 722.289063 104.289063 714.914063 108.789063 714.289063 103.039063 C 714.289063 102.664063 712.914063 99.164063 717.289063 98.164063 L 747.164063 93.914063 C 747.164063 93.914063 744.164063 104.289063 757.414063 103.789063 L 777.039063 101.039063 C 777.039063 101.039063 782.289063 100.664063 785.289063 93.789063 C 785.289063 93.789063 775.539063 99.789063 778.664063 90.914063 C 778.664063 90.914063 782.914063 78.289063 797.289063 74.789063 C 797.289063 74.789063 811.164063 70.164063 819.164063 61.789063 C 818.789063 61.914063 790.664063 64.414063 776.164063 77.164063 C 776.164063 77.539063 784.289063 65.789063 809.414063 61.789063 C 809.414063 61.789063 829.039063 60.289063 841.664063 46.664063 C 841.664063 46.664063 818.914063 53.789063 814.539063 54.164063 C 814.664063 54.539063 801.289063 55.289063 775.164063 67.289063 C 775.164063 67.289063 793.164063 55.414063 815.539063 52.039063 C 815.164063 52.039063 859.5 41.746094 868.332031 30.578125 "/>
<path style=" stroke:none;fill-rule:nonzero;fill:rgb(100%,100%,100%);fill-opacity:1;" d="M 72.332031 192.914063 L 156 192.914063 C 156 192.914063 198.664063 193.246094 188.664063 208.246094 L 160.332031 249.582031 C 160.332031 249.582031 153 262.578125 114.332031 261.914063 L 63.332031 261.914063 C 63.332031 261.914063 23.332031 263.582031 35 245.582031 L 48 227.246094 C 48 227.246094 54.332031 218.246094 66 220.578125 C 67 220.578125 148 220.578125 148 220.578125 L 154.332031 211.914063 C 154.332031 211.914063 158 207.914063 149 206.246094 L 63 206.246094 L 72.332031 192.914063 "/>
<path style=" stroke:none;fill-rule:nonzero;fill:rgb(100%,100%,100%);fill-opacity:1;" d="M 301 192.914063 L 239.664063 192.914063 C 239.664063 192.914063 217 191.914063 207.332031 206.246094 L 167.332031 261.914063 L 199 261.914063 L 234.332031 213.578125 C 234.332031 213.578125 239 205.914063 249.664063 205.914063 L 291.332031 205.914063 L 301 192.914063 "/>
<path style=" stroke:none;fill-rule:nonzero;fill:rgb(100%,100%,100%);fill-opacity:1;" d="M 315 192.914063 L 397.332031 192.914063 C 397.332031 192.914063 440.664063 192.578125 430 208.914063 L 394 261.914063 L 361.332031 261.914063 L 396 211.914063 C 396 211.914063 400 208.578125 391 205.914063 L 336.332031 205.914063 L 297 261.914063 L 265 261.914063 L 315 192.914063 "/>
<path style=" stroke:none;fill-rule:nonzero;fill:rgb(100%,100%,100%);fill-opacity:1;" d="M 480.164063 192.914063 L 574.164063 192.914063 C 574.164063 192.914063 584.914063 192.664063 581.164063 201.664063 L 563.664063 226.414063 C 563.664063 226.414063 557.164063 233.914063 544.914063 234.414063 L 460.164063 234.414063 L 454.164063 242.414063 C 454.164063 242.414063 451.664063 248.414063 461.914063 248.414063 L 547.164063 248.414063 L 538.414063 261.914063 L 442.164063 261.914063 C 442.164063 261.914063 408.414063 262.164063 421.664063 244.414063 L 451.164063 203.164063 C 451.164063 203.164063 458.164063 193.164063 480.164063 192.914063 "/>
<path style=" stroke:none;fill-rule:nonzero;fill:rgb(100%,100%,100%);fill-opacity:1;" d="M 770.164063 192.914063 L 864.164063 192.914063 C 864.164063 192.914063 874.914063 192.664063 871.164063 201.664063 L 853.664063 226.414063 C 853.664063 226.414063 847.164063 233.914063 834.914063 234.414063 L 750.164063 234.414063 L 744.164063 242.414063 C 744.164063 242.414063 741.664063 248.414063 751.914063 248.414063 L 837.164063 248.414063 L 828.414063 261.914063 L 732.164063 261.914063 C 732.164063 261.914063 698.414063 262.164063 711.664063 244.414063 L 741.164063 203.164063 C 741.164063 203.164063 748.164063 193.164063 770.164063 192.914063 "/>
<path style=" stroke:none;fill-rule:nonzero;fill:rgb(100%,100%,100%);fill-opacity:1;" d="M 503.664063 167.664063 L 627.914063 167.664063 L 647.414063 140.164063 L 677.414063 140.164063 L 658.414063 167.664063 L 710.914063 167.664063 L 730.164063 140.164063 L 760.414063 140.164063 L 742.164063 167.664063 L 836.664063 167.664063 L 827.664063 181.164063 L 732.914063 181.164063 L 672.664063 264.414063 C 672.664063 264.414063 668.164063 270.164063 675.914063 271.664063 L 713.164063 271.664063 L 700.664063 284.664063 L 662.914063 284.664063 C 662.914063 284.664063 625.664063 283.914063 641.914063 263.914063 L 700.664063 181.164063 L 650.164063 181.164063 L 588.914063 265.164063 C 588.914063 265.164063 585.164063 270.164063 592.664063 271.664063 C 593.164063 272.414063 630.164063 271.664063 630.164063 271.664063 L 617.164063 284.664063 L 579.664063 284.664063 C 579.664063 284.664063 546.164063 283.914063 556.914063 266.164063 L 617.664063 181.164063 L 494.414063 181.164063 L 503.664063 167.664063 "/>
<path style=" stroke:none;fill-rule:nonzero;fill:rgb(0%,0%,0%);fill-opacity:1;" d="M 764.414063 69.664063 L 751.539063 87.914063 L 717.789063 93.289063 Z M 764.414063 69.664063 "/>
<path style=" stroke:none;fill-rule:nonzero;fill:rgb(0%,0%,0%);fill-opacity:1;" d="M 75.421875 234.222656 L 139.382813 234.222656 C 139.382813 234.222656 131.179688 250.023438 119.785156 248.808594 L 76.03125 248.808594 C 76.03125 248.808594 63.421875 248.808594 69.195313 242.425781 L 75.421875 234.222656 "/>
<path style=" stroke:none;fill-rule:nonzero;fill:rgb(0%,0%,0%);fill-opacity:1;" d="M 470.289063 220.398438 L 536.984375 220.398438 L 544.582031 210.675781 C 544.582031 210.675781 547.921875 206.421875 540.632813 206.117188 L 490.648438 206.117188 C 490.648438 206.117188 478.039063 206.269531 470.289063 220.398438 "/>
<path style=" stroke:none;fill-rule:nonzero;fill:rgb(0%,0%,0%);fill-opacity:1;" d="M 760.289063 220.398438 L 826.984375 220.398438 L 834.582031 210.675781 C 834.582031 210.675781 837.921875 206.421875 830.632813 206.117188 L 780.648438 206.117188 C 780.648438 206.117188 768.039063 206.269531 760.289063 220.398438 "/>
</g>
</svg>
